HIERARCHY
ROOT SpineBase
{
  OFFSET 0.000000 0.000000 0.000000
  CHANNELS 6 Xposition Yposition Zposition Zrotation Xrotation Yrotation
  JOINT SpineMid
  {
    OFFSET 0.000000 31.875263 0.000000
    CHANNELS 3 Zrotation Xrotation Yrotation
    JOINT SpineShoulder
    {
      OFFSET -0.068467 23.610839 -0.845414
      CHANNELS 3 Zrotation Xrotation Yrotation
      JOINT Neck
      {
        OFFSET -0.026549 7.816569 -0.650955
        CHANNELS 3 Zrotation Xrotation Yrotation
        JOINT Head
        {
          OFFSET -5.723268 10.629365 3.607864
          CHANNELS 3 Zrotation Xrotation Yrotation
          End Site
          {
            OFFSET 0 0 0
          }
        }
      }
      JOINT ShoulderLeft
      {
        OFFSET -9.571565 -3.672698 12.590785
        CHANNELS 3 Zrotation Xrotation Yrotation
        JOINT ElbowLeft
        {
          OFFSET -4.256976 -29.572285 -0.594010
          CHANNELS 3 Zrotation Xrotation Yrotation
          JOINT WristLeft
          {
            OFFSET -8.208080 -1.179791 -28.186113
            CHANNELS 3 Zrotation Xrotation Yrotation
            JOINT HandLeft
            {
              OFFSET 6.113988 -0.824388 -1.335555
              CHANNELS 3 Zrotation Xrotation Yrotation
              JOINT HandTipLeft
              {
                OFFSET 0.527547 0.599451 -2.379689
                CHANNELS 3 Zrotation Xrotation Yrotation
                End Site
                {
                  OFFSET 0 0 0
                }
              }
              JOINT ThumbLeft
              {
                OFFSET 1.299764 1.574022 -3.084165
                CHANNELS 3 Zrotation Xrotation Yrotation
                End Site
                {
                  OFFSET 0 0 0
                }
              }
            }
          }
        }
      }
      JOINT ShoulderRight
      {
        OFFSET 9.045960 -2.665276 -13.491111
        CHANNELS 3 Zrotation Xrotation Yrotation
        JOINT ElbowRight
        {
          OFFSET 7.635541 -21.884420 -7.619361
          CHANNELS 3 Zrotation Xrotation Yrotation
          JOINT WristRight
          {
            OFFSET -28.035127 -10.082900 2.948763
            CHANNELS 3 Zrotation Xrotation Yrotation
            JOINT HandRight
            {
              OFFSET -3.626979 0.480270 1.131025
              CHANNELS 3 Zrotation Xrotation Yrotation
              JOINT HandTipRight
              {
                OFFSET -3.481904 -2.149641 2.208884
                CHANNELS 3 Zrotation Xrotation Yrotation
                End Site
                {
                  OFFSET 0 0 0
                }
              }
              JOINT ThumbRight
              {
                OFFSET 0.748194 2.938877 0.535668
                CHANNELS 3 Zrotation Xrotation Yrotation
                End Site
                {
                  OFFSET 0 0 0
                }
              }
            }
          }
        }
      }
    }
  }
  JOINT HipLeft
  {
    OFFSET -3.637360 0.033795 0.881731
    CHANNELS 3 Zrotation Xrotation Yrotation
    JOINT KneeLeft
    {
      OFFSET -2.096039 -36.132490 3.329197
      CHANNELS 3 Zrotation Xrotation Yrotation
      JOINT AnkleLeft
      {
        OFFSET 3.355605 -36.091578 2.770835
        CHANNELS 3 Zrotation Xrotation Yrotation
        JOINT FootLeft
        {
          OFFSET -4.732216 -6.579494 -6.734135
          CHANNELS 3 Zrotation Xrotation Yrotation
          End Site
          {
            OFFSET 0 0 0
          }
        }
      }
    }
  }
  JOINT HipRight
  {
    OFFSET 2.652178 2.029355 -8.673117
    CHANNELS 3 Zrotation Xrotation Yrotation
    JOINT KneeRight
    {
      OFFSET 7.250471 -35.358432 -6.681375
      CHANNELS 3 Zrotation Xrotation Yrotation
      JOINT AnkleRight
      {
        OFFSET 5.408029 -36.030505 0.349699
        CHANNELS 3 Zrotation Xrotation Yrotation
        JOINT FootRight
        {
          OFFSET -5.475357 -6.280028 -6.794781
          CHANNELS 3 Zrotation Xrotation Yrotation
          End Site
          {
            OFFSET 0 0 0
          }
        }
      }
    }
  }
}
MOTION
Frames: 13
Frame Time: 0.033333
46.151748 74.422012 362.524965 9.469673 3.992196 52.020775 0.002078 0.329688 -52.034804 0.962103 0.329518 0.529390 16.464916 13.619273 -2.365943 0.000000 0.000000 0.000000 -10.241800 -4.372118 -1.258392 5.689374 -14.780495 12.990557 77.882457 48.361131 17.063137 -51.886174 21.737740 -65.197446 0.000000 0.000000 0.000000 0.000000 0.000000 0.000000 -59.683338 -4.660892 14.964566 40.569562 -14.512971 -9.074481 -8.407138 -0.327861 39.385657 76.489761 -16.103419 -49.379211 0.000000 0.000000 0.000000 0.000000 0.000000 0.000000 -13.485343 1.095601 -51.345137 -1.927823 7.614891 -0.136152 1.805542 0.193089 -1.440041 0.000000 0.000000 0.000000 -11.327924 5.488578 -51.716256 1.821593 1.550747 -0.050590 -5.540603 2.307811 3.850807 0.000000 0.000000 0.000000
46.536521 73.556973 362.493985 10.056890 4.059598 49.157948 -0.154146 0.502189 -49.194149 0.985007 0.376925 0.545011 16.807048 14.226502 -2.441790 0.000000 0.000000 0.000000 -10.633666 -4.482095 -1.316740 5.689314 -14.780947 12.988188 77.058816 49.780481 19.114559 -53.739269 22.601937 -75.771083 0.000000 0.000000 0.000000 0.000000 0.000000 0.000000 -60.785267 -5.020870 14.845732 42.067977 -14.287121 -9.632325 -3.070785 3.427786 40.761080 43.553731 -9.530369 -66.140753 0.000000 0.000000 0.000000 0.000000 0.000000 0.000000 -15.326334 0.542934 -48.444552 -1.154361 8.907555 -0.144607 1.141854 -0.808452 -0.218858 0.000000 0.000000 0.000000 -11.606608 6.040335 -48.668701 2.096153 0.757509 -0.253393 -3.533145 -0.987041 4.571315 0.000000 0.000000 0.000000
46.773692 73.008397 362.465716 10.407683 4.115733 47.417637 -0.250079 0.587700 -47.467805 0.957696 0.396816 0.550756 17.767675 15.079119 -2.629076 0.000000 0.000000 0.000000 -10.838081 -4.553339 -1.348835 5.689277 -14.781354 12.986220 75.779882 52.397955 22.884627 -52.288974 23.357228 -81.637710 0.000000 0.000000 0.000000 0.000000 0.000000 0.000000 -61.350435 -5.176414 14.801221 43.403049 -13.928803 -10.662147 5.759101 8.166806 32.834455 19.890222 0.320785 -60.770880 0.000000 0.000000 0.000000 0.000000 0.000000 0.000000 -16.108370 -0.090583 -46.698146 -1.369295 9.518947 -0.146736 0.663609 0.393955 -0.277853 0.000000 0.000000 0.000000 -11.745926 6.310102 -46.839227 2.033776 -0.636892 -0.498314 -1.854818 -2.663714 5.451023 0.000000 0.000000 0.000000
46.857818 72.967074 362.261434 10.574391 4.382869 47.918093 -0.221295 0.524895 -47.987193 0.902259 0.359793 0.559989 18.193008 15.471630 -2.652988 0.000000 0.000000 0.000000 -11.018056 -4.751465 -1.390671 6.903681 -17.622211 12.909146 77.850740 57.237835 23.263263 -44.165577 23.346589 -91.391199 0.000000 0.000000 0.000000 0.000000 0.000000 0.000000 -62.030881 -5.479110 14.635913 44.507906 -14.048114 -10.487194 12.437018 9.936803 21.925583 -3.766224 4.106219 -45.758634 0.000000 0.000000 0.000000 0.000000 0.000000 0.000000 -16.486203 -0.214616 -47.193454 -1.697261 9.650006 -0.145095 1.102993 -0.121996 -0.070719 0.000000 0.000000 0.000000 -12.541855 6.061419 -47.404440 2.103436 -0.051307 -0.416086 -1.400633 -3.626139 5.976925 0.000000 0.000000 0.000000
46.715688 73.424868 362.336014 10.498876 4.385508 49.465413 0.065048 0.339050 -49.519089 0.759311 0.381673 0.552415 17.997205 15.704040 -2.509919 0.000000 0.000000 0.000000 -11.125171 -4.855055 -1.414440 5.946196 -15.976047 10.829177 72.134952 65.163548 37.684095 -36.145300 21.714129 -92.879233 0.000000 0.000000 0.000000 0.000000 0.000000 0.000000 -62.774511 -5.847419 14.505102 45.963203 -14.180919 -10.135279 15.002218 9.653613 14.367544 -10.723707 1.460037 -32.476757 0.000000 0.000000 0.000000 0.000000 0.000000 0.000000 -15.738977 0.366754 -48.720871 -2.181672 8.884368 -0.137745 2.938239 -2.557606 0.119592 0.000000 0.000000 0.000000 -12.043251 6.071629 -49.029123 1.674048 -0.059127 -0.343364 -3.034077 -3.999953 8.013666 0.000000 0.000000 0.000000
46.771025 73.365012 362.585332 10.581479 4.202879 49.206001 0.194519 0.347984 -49.247401 0.769284 0.500742 0.548993 17.866130 15.905256 -2.470021 0.000000 0.000000 0.000000 -11.298998 -4.890770 -1.440041 4.986069 -13.281308 12.329345 62.297946 68.140539 55.127077 -33.208020 20.601177 -96.808544 0.000000 0.000000 0.000000 0.000000 0.000000 0.000000 -63.863659 -6.324340 14.393838 47.204471 -14.700035 -8.697520 16.972738 9.347624 7.994229 -18.837000 -0.007858 -27.547054 0.000000 0.000000 0.000000 0.000000 0.000000 0.000000 -15.502954 0.721992 -48.448022 -2.218679 8.559594 -0.127492 4.209880 -4.594196 0.548616 0.000000 0.000000 0.000000 -11.072289 6.644810 -48.677567 1.347624 -1.000080 -0.478546 -3.678237 -6.718882 11.270249 0.000000 0.000000 0.000000
46.766930 73.251304 363.000396 10.552229 3.856541 47.104174 0.386338 0.376007 -47.120777 0.692021 0.638961 0.529502 17.976341 16.043109 -2.511938 0.000000 0.000000 0.000000 -11.315663 -4.846802 -1.437702 3.759711 -9.758611 16.817609 22.390342 61.384610 101.873330 -21.313333 8.473624 -100.072828 0.000000 0.000000 0.000000 0.000000 0.000000 0.000000 -64.370942 -6.619523 14.328402 47.708673 -15.691968 -5.889763 19.742926 8.395430 -1.666439 -24.089854 -2.272829 -20.771668 0.000000 0.000000 0.000000 0.000000 0.000000 0.000000 -15.231099 0.520066 -46.373635 -2.183724 8.377079 -0.125884 4.743694 -5.749492 1.042525 0.000000 0.000000 0.000000 -9.266475 7.509189 -46.413255 0.937472 -2.972789 -0.791594 -4.156355 -9.337190 14.267850 0.000000 0.000000 0.000000
46.710888 73.097470 363.517756 10.428738 3.406769 45.743001 0.593733 0.432786 -45.729379 0.559877 0.766741 0.500295 17.471136 16.151166 -2.306374 0.000000 0.000000 0.000000 -11.173158 -4.718164 -1.406817 1.530017 -4.916020 18.962735 -0.847994 36.920354 125.452776 -14.422214 -8.088057 -103.505833 0.000000 0.000000 0.000000 0.000000 0.000000 0.000000 -64.753005 -6.936612 14.314493 48.484235 -16.176649 -4.249901 20.082878 8.485581 -3.600564 -26.447046 -4.176897 -19.034327 0.000000 0.000000 0.000000 0.000000 0.000000 0.000000 -14.533625 0.694160 -45.021641 -2.124368 8.041429 -0.108733 4.911507 -6.383124 1.244792 0.000000 0.000000 0.000000 -7.287072 8.459380 -44.940215 0.422099 -4.867316 -1.081870 -1.037351 -14.107793 16.473179 0.000000 0.000000 0.000000
46.613936 72.923471 364.080827 10.206789 2.936611 45.360443 0.703500 0.538396 -45.320242 0.353732 0.828156 0.461247 17.315780 16.302948 -2.155426 0.000000 0.000000 0.000000 -10.743747 -4.474954 -1.329608 -0.990483 0.246757 19.554029 -7.500052 14.260537 121.455203 -17.100093 -9.905735 -110.844463 0.000000 0.000000 0.000000 0.000000 0.000000 0.000000 -63.656057 -6.732465 14.397381 47.029985 -16.771299 -2.158185 20.504987 8.795507 -4.548197 -25.039922 -5.226917 -17.729933 0.000000 0.000000 0.000000 0.000000 0.000000 0.000000 -13.866949 1.392867 -44.643268 -1.601708 7.515819 -0.087998 4.817040 -8.062799 2.432123 0.000000 0.000000 0.000000 -5.263470 9.373762 -44.503874 -0.093485 -6.576863 -1.343742 -3.231520 -13.120826 17.370377 0.000000 0.000000 0.000000
46.642303 72.324491 364.609155 10.011420 2.499662 45.747951 0.611033 0.752392 -45.692334 0.158532 0.833573 0.421475 16.800552 16.586631 -1.786549 0.000000 0.000000 0.000000 -10.118833 -4.146215 -1.222845 -3.236441 4.960177 19.071156 1.406031 16.923476 103.937094 -27.294750 2.872174 -101.291370 0.000000 0.000000 0.000000 0.000000 0.000000 0.000000 -61.531558 -5.967160 14.709060 45.026886 -17.604455 0.051284 17.743547 9.271237 -3.138555 -17.468606 -5.419384 -16.389513 0.000000 0.000000 0.000000 0.000000 0.000000 0.000000 -13.707279 2.496054 -45.014172 -0.471003 7.138597 -0.051794 2.022494 -5.565382 2.822161 0.000000 0.000000 0.000000 -3.534652 10.309469 -44.844172 -0.275661 -8.007011 -1.572846 -5.310700 -13.924745 20.055296 0.000000 0.000000 0.000000
46.461151 72.230093 365.071443 9.604950 2.153913 47.913620 0.600701 0.805493 -47.838466 -0.019706 0.788914 0.385921 16.579112 17.002422 -1.473921 0.000000 0.000000 0.000000 -9.441666 -3.797871 -1.111933 -4.879002 8.746336 17.796703 2.602622 8.582061 88.229725 -27.065156 -0.117340 -92.105990 0.000000 0.000000 0.000000 0.000000 0.000000 0.000000 -58.493716 -4.639220 15.116375 41.951329 -18.319622 1.470429 14.734980 9.705695 -0.122819 -13.865520 -5.367450 -18.726260 0.000000 0.000000 0.000000 0.000000 0.000000 0.000000 -12.883301 3.824711 -47.189328 0.376956 6.334671 -0.010500 0.516172 -4.430479 3.113780 0.000000 0.000000 0.000000 -1.769403 10.552436 -47.085146 -0.494416 -8.797876 -1.650122 -6.094744 -13.720659 20.390148 0.000000 0.000000 0.000000
46.163847 72.595479 365.393112 9.009610 1.920168 52.252564 0.662455 0.722603 -52.161222 -0.166843 0.697065 0.354266 15.806432 17.117342 -0.978826 0.000000 0.000000 0.000000 -8.720050 -3.471607 -1.001871 -5.778480 11.311450 15.980505 3.736693 2.668529 73.684368 -23.703912 -3.723274 -81.939249 0.000000 0.000000 0.000000 0.000000 0.000000 0.000000 -55.907659 -3.611973 15.388761 39.970895 -18.588247 2.100566 11.011477 10.423037 6.979353 -9.643684 -4.799256 -25.248934 0.000000 0.000000 0.000000 0.000000 0.000000 0.000000 -11.374205 5.377813 -51.598011 1.109693 5.216299 0.054675 1.272490 -5.106781 2.490153 0.000000 0.000000 0.000000 -0.442988 9.917126 -51.565959 -0.540150 -8.589849 -1.528281 -5.092483 -13.327499 18.942786 0.000000 0.000000 0.000000
45.772794 73.304711 365.482981 8.297032 1.885200 56.852005 0.639267 0.580001 -56.755352 -0.315296 0.523211 0.322195 15.464959 17.367754 -0.537606 0.000000 0.000000 0.000000 -7.881113 -3.169003 -0.884635 -5.866050 12.428730 13.603646 5.863506 1.786611 68.296545 -20.344773 -3.193248 -79.042073 0.000000 0.000000 0.000000 0.000000 0.000000 0.000000 -51.686360 -2.087634 15.319445 35.780263 -18.026178 1.226533 9.233121 10.708240 15.853249 -8.127644 -2.565525 -36.228392 0.000000 0.000000 0.000000 0.000000 0.000000 0.000000 -9.689517 6.383444 -56.350226 1.677807 4.107563 0.124618 -1.910457 -2.745131 3.412493 0.000000 0.000000 0.000000 -0.046366 8.566975 -56.317905 -0.527196 -7.542286 -1.258382 -2.505685 -12.160537 15.145285 0.000000 0.000000 0.000000
